<svg viewBox="0 0 24 24" xml:space="preserve" xmlns="http://www.w3.org/2000/svg" enable-background="new 0 0 24 24"><g id="_icons"><path d="M21 10h-2.6l.3-.3c.4-.4.4-1 0-1.4s-1-.4-1.4 0l-2 2c-.1.1-.2.2-.2.3-.1.2-.1.5 0 .8.1.1.1.2.2.3l2 2c.2.2.5.3.7.3s.5-.1.7-.3c.4-.4.4-1 0-1.4l-.3-.3H21c.6 0 1-.4 1-1s-.4-1-1-1zM18 16z" fill="#ffffff" class="fill-000000"></path><path d="M17 15c-.6 0-1 .4-1 1s-.4 1-1 1h-1V8.4c0-1.3-.8-2.4-1.9-2.8L10.5 5H15c.6 0 1 .4 1 1s.4 1 1 1 1-.4 1-1c0-1.7-1.3-3-3-3H5c-.1 0-.2 0-.3.1-.1 0-.2.1-.2.1l-.1.1c-.1 0-.2.1-.2.2v.1c-.1 0-.2.1-.2.2V18c0 .4.3.8.6.9l6.6 2.5c.2.1.5.1.7.1.4 0 .8-.1 1.1-.4.5-.4.9-1 .9-1.6V19h1c1.6 0 3-1.3 3-3 .1-.5-.4-1-.9-1zM6 17.3V5.4l5.3 2c.4.2.7.6.7 1v11.1l-6-2.2z" fill="#ffffff" class="fill-000000"></path></g></svg>